<svg width="26" height="24" viewBox="0 0 26 24" fill="none" xmlns="http://www.w3.org/2000/svg">
<path d="M9.66859 13.55V24H0V15.75C0 11.2833 0.534361 8.05 1.60308 6.05C3.00578 3.38333 5.22672 1.36667 8.2659 0L10.4701 3.5C8.63327 4.26667 7.28067 5.41667 6.41233 6.95C5.54399 8.45 5.05973 10.65 4.95954 13.55H9.66859ZM25.1985 13.55V24H15.5299V15.75C15.5299 11.2833 16.0642 8.05 17.1329 6.05C18.5356 3.38333 20.7566 1.36667 23.7958 0L26 3.5C24.1631 4.26667 22.8105 5.41667 21.9422 6.95C21.0739 8.45 20.5896 10.65 20.4894 13.55H25.1985Z" fill="#61DAFB"/>
</svg>
