<svg width="24" height="24" viewBox="0 0 24 24" fill="none" xmlns="http://www.w3.org/2000/svg">
<g clip-path="url(#clip0_46_33)">
<path d="M24 11.999C24 18.6264 18.6273 23.999 12 23.999C5.37267 23.999 0 18.6264 0 11.999C0 5.37169 5.37267 -0.000976562 12 -0.000976562C18.6273 -0.000976562 24 5.37169 24 11.999Z" fill="#FFCC4D"/>
<path d="M11.9993 13.9992C9.58402 13.9992 7.98135 13.7178 5.99935 13.3325C5.54668 13.2452 4.66602 13.3325 4.66602 14.6658C4.66602 17.3325 7.72935 20.6658 11.9993 20.6658C16.2687 20.6658 19.3327 17.3325 19.3327 14.6658C19.3327 13.3325 18.452 13.2445 17.9993 13.3325C16.0173 13.7178 14.4147 13.9992 11.9993 13.9992Z" fill="#664500"/>
<path d="M6 14.6655C6 14.6655 8 15.3322 12 15.3322C16 15.3322 18 14.6655 18 14.6655C18 14.6655 16.6667 17.3322 12 17.3322C7.33333 17.3322 6 14.6655 6 14.6655Z" fill="white"/>
<path d="M10.4545 2.94104L7.42652 3.47504L5.86652 0.63971C5.69452 0.327043 5.34118 0.15971 4.99185 0.221043C4.64052 0.283043 4.36718 0.56171 4.31252 0.91371L3.81585 4.11171L0.787849 4.64571C0.431183 4.70838 0.155849 4.99571 0.107183 5.35504C0.0585158 5.71438 0.247849 6.06371 0.575849 6.21971L3.28918 7.50771L2.79052 10.7157C2.73518 11.073 2.91652 11.425 3.23918 11.5884C3.35852 11.6484 3.48652 11.677 3.61385 11.677C3.83185 11.677 4.04718 11.5917 4.20785 11.429L6.54918 9.05504L9.56118 10.485C9.88785 10.6397 10.2772 10.567 10.5252 10.3037C10.7732 10.0404 10.8225 9.64771 10.6485 9.33104L9.08318 6.48571L11.1932 4.34704C11.4478 4.08904 11.5058 3.69571 11.3378 3.37438C11.1685 3.05304 10.8092 2.87904 10.4545 2.94104ZM13.5452 2.94104L16.5732 3.47504L18.1332 0.63971C18.3052 0.327043 18.6585 0.15971 19.0078 0.221043C19.3585 0.283043 19.6318 0.56171 19.6865 0.91371L20.1832 4.11171L23.2112 4.64571C23.5685 4.70838 23.8438 4.99504 23.8918 5.35438C23.9398 5.71371 23.7512 6.06304 23.4232 6.21904L20.7098 7.50704L21.2085 10.715C21.2638 11.0724 21.0825 11.4244 20.7598 11.5877C20.6405 11.6477 20.5125 11.6764 20.3852 11.6764C20.1672 11.6764 19.9518 11.591 19.7912 11.4284L17.4498 9.05438L14.4378 10.4844C14.1112 10.639 13.7218 10.5664 13.4738 10.303C13.2258 10.0397 13.1765 9.64704 13.3505 9.33038L14.9158 6.48571L12.8058 4.34704C12.5512 4.08904 12.4932 3.69571 12.6612 3.37438C12.8312 3.05304 13.1905 2.87904 13.5452 2.94104Z" fill="#E95F28"/>
</g>
<defs>
<clipPath id="clip0_46_33">
<rect width="24" height="24" fill="white"/>
</clipPath>
</defs>
</svg>
