<svg width="14" height="20" viewBox="0 0 14 20" fill="none" xmlns="http://www.w3.org/2000/svg">
<path d="M12.4843 9.74124C12.3251 9.58721 12.139 9.45734 11.9379 9.35708L11.6881 8.53802L6.68481 8.50419L6.4931 9.16318C6.20147 9.22057 5.84302 9.39815 5.6232 9.59688L3.36822 7.20856C2.85803 7.42842 2.50083 7.92131 2.50083 8.49694V9.07681L0.00292969 11.5932L0.0129212 12.9148L6.24768 19.3954C6.24768 19.3954 12.8159 10.161 12.8315 10.1792C12.7522 10.0439 12.5124 9.75453 12.4843 9.74124Z" fill="#E0AA94"/>
<path d="M10.9789 9.12747H6.86922C6.73933 9.12747 6.61256 9.14015 6.49017 9.16431L6.44458 8.9964L4.40067 1.46782C4.40067 1.46782 4.14089 0.285738 5.36237 0.0350673C6.58384 -0.216207 6.84362 0.965267 6.84362 0.965267L8.77762 7.95324C9.05613 7.96774 9.32591 7.9913 9.59256 8.01787L10.8796 1.66835C10.8796 1.66835 10.997 0.465738 12.241 0.578691C13.4843 0.692247 13.3669 1.89486 13.3669 1.89486L12.0773 8.6364L11.9393 9.3576C11.6496 9.21566 11.3261 9.12747 10.9789 9.12747ZM1.19649 7.91942H1.30141C1.96272 7.91942 2.4979 8.43767 2.4979 9.07733V11.5937C2.4979 12.2334 1.96272 12.7516 1.30141 12.7516H1.19649C0.535175 12.7516 0 12.2334 0 11.5937V9.07733C0 8.43767 0.535175 7.91942 1.19649 7.91942ZM5.51661 9.70733L5.48164 9.74478C5.18564 10.0643 4.9958 10.4763 4.9958 10.9395C4.9958 10.9776 5.00392 11.0138 5.00704 11.0513C5.03452 11.4608 5.19938 11.8317 5.46166 12.1228C5.41732 12.2008 5.35987 12.2696 5.29992 12.3361C5.07136 12.5879 4.74414 12.7516 4.37132 12.7516C3.6819 12.7516 3.12237 12.2104 3.12237 11.5436V7.91942C3.12237 7.65304 3.21417 7.40902 3.36529 7.20908C3.5926 6.90888 3.95667 6.71137 4.37132 6.71137C5.06074 6.71137 5.62027 7.25257 5.62027 7.91942V9.5974C5.58218 9.63062 5.55221 9.67169 5.51661 9.70733Z" fill="#F7DECE"/>
<path d="M1.28674 13.3557C1.9262 13.3557 2.48885 13.038 2.8167 12.5572C2.89351 12.6677 2.98593 12.7662 3.08585 12.8574C3.82585 13.5309 4.98051 13.488 5.68804 12.8055C5.78296 12.7136 5.87725 12.6212 5.94969 12.5107L5.94782 12.5089C6.07334 12.5783 6.24382 12.7517 6.86829 12.7517H8.45259C8.22153 12.9202 8.01046 13.128 7.81312 13.3557C7.04627 14.2418 6.55606 15.5338 6.55606 16.9799C6.55606 17.1466 6.69594 17.2819 6.86829 17.2819C7.04065 17.2819 7.18053 17.1466 7.18053 16.9799C7.18053 15.4408 7.77753 14.0957 8.66491 13.3557C9.12202 12.9746 9.65408 12.7517 10.2248 12.7517C10.6701 12.7994 10.7538 12.1477 10.3029 12.1477H6.86829C6.17887 12.1477 5.61934 11.6065 5.61934 10.9396C5.61934 10.2728 6.17887 9.73157 6.86829 9.73157H11.8641C12.3999 9.73157 12.9007 10.0916 13.0587 10.5863L13.7375 12.7517C13.8018 12.954 14.0366 13.8818 13.9942 14.0751C13.9942 16.9799 11.0616 20 7.49277 20C3.41058 20 0.0964879 16.8403 0.0078125 12.9124L0.0165551 12.9184C0.33816 13.1872 0.750937 13.3557 1.2093 13.3557H1.28674Z" fill="#F7DECE"/>
</svg>
