<svg width="10" height="10" viewBox="0 0 10 10" fill="none" xmlns="http://www.w3.org/2000/svg">
<path d="M2.31625 3.68962C2.38542 4.18254 2.645 5.02587 3.6025 5.38921C4.58333 5.76212 4.58333 6.05587 4.58333 6.25004V6.31796C3.98333 6.49879 3.54167 7.05004 3.54167 7.70837C3.54167 8.51254 4.19583 9.16671 5 9.16671C5.80417 9.16671 6.45833 8.51254 6.45833 7.70837C6.45833 7.05004 6.01667 6.49879 5.41667 6.31796V6.25004C5.41667 6.05587 5.41667 5.76212 6.3975 5.38962C7.355 5.02629 7.61458 4.18296 7.68375 3.69004C8.29667 3.51712 8.75 2.95921 8.75 2.29171C8.75 1.48754 8.09583 0.833374 7.29167 0.833374C6.4875 0.833374 5.83333 1.48754 5.83333 2.29171C5.83333 2.93837 6.25917 3.48129 6.84333 3.67212C6.7825 3.97837 6.60792 4.41837 6.1025 4.61046C5.60583 4.79879 5.24708 5.00754 5 5.25046C4.75292 5.00754 4.39458 4.79879 3.8975 4.61046C3.39208 4.41837 3.21708 3.97837 3.15667 3.67212C3.74083 3.48129 4.16667 2.93837 4.16667 2.29171C4.16667 1.48754 3.5125 0.833374 2.70833 0.833374C1.90417 0.833374 1.25 1.48754 1.25 2.29171C1.25 2.95921 1.70333 3.51712 2.31625 3.68962ZM7.29167 1.66671C7.63625 1.66671 7.91667 1.94712 7.91667 2.29171C7.91667 2.63629 7.63625 2.91671 7.29167 2.91671C6.94708 2.91671 6.66667 2.63629 6.66667 2.29171C6.66667 1.94712 6.94708 1.66671 7.29167 1.66671ZM5.625 7.70837C5.625 8.05296 5.34458 8.33337 5 8.33337C4.65542 8.33337 4.375 8.05296 4.375 7.70837C4.375 7.36379 4.65542 7.08337 5 7.08337C5.34458 7.08337 5.625 7.36379 5.625 7.70837ZM2.70833 1.66671C3.05292 1.66671 3.33333 1.94712 3.33333 2.29171C3.33333 2.63629 3.05292 2.91671 2.70833 2.91671C2.36375 2.91671 2.08333 2.63629 2.08333 2.29171C2.08333 1.94712 2.36375 1.66671 2.70833 1.66671Z" fill="#111111" fill-opacity="0.4"/>
</svg>
