<svg width="20" height="20" viewBox="0 0 20 20" fill="none" xmlns="http://www.w3.org/2000/svg">
<g clip-path="url(#clip0_46_5)">
<path d="M10.002 4.87225C7.1647 4.87225 4.87529 7.16166 4.87529 10C4.87529 12.8383 7.1647 15.1277 10.002 15.1277C12.8393 15.1277 15.1287 12.8383 15.1287 10C15.1287 7.16166 12.8393 4.87225 10.002 4.87225ZM10.002 13.3337C8.16845 13.3337 6.66885 11.8387 6.66885 10C6.66885 8.16134 8.16346 6.66631 10.002 6.66631C11.8405 6.66631 13.3351 8.16134 13.3351 10C13.3351 11.8387 11.8355 13.3337 10.002 13.3337ZM16.5344 4.6625C16.5344 5.32746 15.9985 5.85854 15.3386 5.85854C14.6739 5.85854 14.143 5.323 14.143 4.6625C14.143 4.00201 14.6779 3.46648 15.3386 3.46648C15.9985 3.46648 16.5344 4.00201 16.5344 4.6625ZM19.9295 5.87639C19.8535 4.27425 19.4876 2.85508 18.3139 1.68583C17.1453 0.516569 15.7266 0.150619 14.125 0.0702892C12.4744 -0.0234297 7.52562 -0.0234297 5.87504 0.0702892C4.27744 0.146156 2.85879 0.512105 1.68607 1.68136C0.51237 2.85061 0.150463 4.26979 0.0704824 5.87193C-0.0234941 7.52316 -0.0234941 12.4724 0.0704824 14.1236C0.146464 15.7258 0.51237 17.145 1.68607 18.3142C2.85879 19.4835 4.27344 19.8495 5.87504 19.9297C7.52562 20.0235 12.4744 20.0235 14.125 19.9297C15.7266 19.8538 17.1453 19.488 18.3139 18.3142C19.4836 17.145 19.8495 15.7258 19.9295 14.1236C20.0235 12.4724 20.0235 7.52761 19.9295 5.87639ZM17.797 15.8953C17.4491 16.7701 16.7752 17.444 15.8965 17.7966C14.5799 18.3186 11.4566 18.1981 10.002 18.1981C8.54736 18.1981 5.42015 18.3142 4.10848 17.7966C3.2337 17.4485 2.55986 16.7746 2.20795 15.8953C1.68608 14.5788 1.80604 11.4549 1.80604 10C1.80604 8.54514 1.69008 5.41671 2.20795 4.10465C2.55586 3.22995 3.2297 2.55606 4.10848 2.2035C5.42415 1.68136 8.54736 1.80185 10.002 1.80185C11.4566 1.80185 14.5839 1.68583 15.8965 2.2035C16.7703 2.5516 17.4441 3.22549 17.797 4.10465C18.3189 5.42119 18.198 8.54514 18.198 10C18.198 11.4549 18.3189 14.5833 17.797 15.8953Z" fill="#141414"/>
</g>
<defs>
<clipPath id="clip0_46_5">
<rect width="20" height="20" fill="white"/>
</clipPath>
</defs>
</svg>
