<svg width="25" height="25" viewBox="0 0 25 25" fill="none" xmlns="http://www.w3.org/2000/svg">
<path d="M4.5 2C3.12524 2 2 3.12524 2 4.5V20.5C2 21.8748 3.12524 23 4.5 23H20.5C21.8748 23 23 21.8748 23 20.5V4.5C23 3.12524 21.8748 2 20.5 2H4.5ZM4.5 3H20.5C21.3342 3 22 3.66576 22 4.5V20.5C22 21.3342 21.3342 22 20.5 22H4.5C3.66576 22 3 21.3342 3 20.5V4.5C3 3.66576 3.66576 3 4.5 3ZM7 5.50586C6.45239 5.50586 5.95961 5.66954 5.59473 5.97656C5.22984 6.28359 5.00586 6.74226 5.00586 7.2334C5.00586 8.16699 5.81564 8.8948 6.8457 8.9668C6.84635 8.96712 6.847 8.96745 6.84766 8.96777C6.89674 8.9845 6.94815 8.9934 7 8.99414C8.13651 8.99414 8.99414 8.19804 8.99414 7.2334C8.99405 7.2246 8.99372 7.21581 8.99316 7.20703C8.94229 6.25692 8.09522 5.50586 7 5.50586ZM7 6.49414C7.69612 6.49414 7.97098 6.80502 8.00098 7.24609C7.9949 7.67422 7.73005 8.00586 7 8.00586C6.3073 8.00586 5.99414 7.65111 5.99414 7.2334C5.99414 7.02454 6.07035 6.86715 6.23047 6.73242C6.39059 6.59769 6.64761 6.49414 7 6.49414ZM5.5 9.5C5.3674 9.50001 5.24023 9.5527 5.14646 9.64646C5.0527 9.74023 5.00001 9.8674 5 10V19.5C5.00001 19.6326 5.0527 19.7598 5.14646 19.8535C5.24023 19.9473 5.3674 20 5.5 20H8.5C8.6326 20 8.75977 19.9473 8.85354 19.8535C8.9473 19.7598 8.99999 19.6326 9 19.5V16.5674V10C8.99999 9.8674 8.9473 9.74023 8.85354 9.64646C8.75977 9.5527 8.6326 9.50001 8.5 9.5H5.5ZM10 9.5C9.8674 9.50001 9.74023 9.5527 9.64646 9.64646C9.5527 9.74023 9.50001 9.8674 9.5 10V19.5C9.50001 19.6326 9.5527 19.7598 9.64646 19.8535C9.74023 19.9473 9.8674 20 10 20H13C13.1326 20 13.2598 19.9473 13.3535 19.8535C13.4473 19.7598 13.5 19.6326 13.5 19.5V14.5C13.5 14.0852 13.6132 13.6725 13.8125 13.4023C14.0118 13.1322 14.2632 12.97 14.7412 12.9785C15.2341 12.987 15.495 13.1558 15.6924 13.4209C15.8898 13.686 16 14.0833 16 14.5V19.5C16 19.6326 16.0527 19.7598 16.1465 19.8535C16.2402 19.9473 16.3674 20 16.5 20H19.5C19.6326 20 19.7598 19.9473 19.8535 19.8535C19.9473 19.7598 20 19.6326 20 19.5V14.1309C20 12.6501 19.5614 11.4772 18.8096 10.6836C18.0577 9.89002 17.0121 9.5 15.9062 9.5C14.8552 9.5 14.0554 9.85244 13.5 10.2119V10C13.5 9.8674 13.4473 9.74023 13.3535 9.64646C13.2598 9.5527 13.1326 9.50001 13 9.5H10ZM6 10.5H8V16.5674V19H6V10.5ZM10.5 10.5H12.5V11.2803C12.5 11.3851 12.533 11.4873 12.5943 11.5724C12.6556 11.6574 12.742 11.7211 12.8415 11.7544C12.9409 11.7876 13.0483 11.7888 13.1484 11.7577C13.2485 11.7266 13.3363 11.6648 13.3994 11.5811C13.3994 11.5811 14.1846 10.5 15.9062 10.5C16.7829 10.5 17.5347 10.7913 18.084 11.3711C18.6333 11.9509 19 12.8441 19 14.1309V19H17V14.5C17 13.9167 16.8602 13.3136 16.4951 12.8232C16.13 12.3329 15.5159 11.9915 14.7588 11.9785C13.9978 11.965 13.3738 12.3135 13.0078 12.8096C12.6419 13.3056 12.5 13.9148 12.5 14.5V19H10.5V10.5Z" fill="black"/>
</svg>
