<svg width="31" height="28" viewBox="0 0 31 28" fill="none" xmlns="http://www.w3.org/2000/svg">
<path d="M24.6663 9.29502C24.3467 9.1858 24.0248 9.08413 23.7006 8.99002C23.7544 8.77129 23.804 8.55126 23.8494 8.33005C24.5806 4.77376 24.1025 1.90876 22.4706 0.965638C20.9082 0.0606344 18.3456 1.00376 15.7606 3.25876C15.5064 3.48126 15.2575 3.71043 15.0137 3.94626C14.8512 3.7896 14.6846 3.63627 14.5137 3.48626C11.8044 1.07501 9.08875 0.0593922 7.45875 1.00564C5.89625 1.91251 5.43187 4.60564 6.09 7.97626C6.15584 8.30958 6.22979 8.6415 6.31187 8.97184C5.93836 9.07777 5.56799 9.19444 5.20125 9.32185C2.02875 10.4312 0 12.1706 0 13.9744C0 15.8381 2.1775 17.7068 5.48562 18.84C5.75396 18.9313 6.0248 19.0161 6.29813 19.0944C6.20937 19.4482 6.13083 19.8058 6.0625 20.1675C5.4375 23.48 5.925 26.1094 7.48437 27.0106C9.09501 27.9413 11.7969 26.985 14.4307 24.6788C14.639 24.4963 14.8473 24.3035 15.0557 24.1007C15.319 24.3552 15.5898 24.6023 15.8682 24.8418C18.4181 27.0406 20.9363 27.9287 22.4932 27.025C24.1025 26.0912 24.6256 23.2663 23.9463 19.8294C23.8942 19.5669 23.8342 19.299 23.7662 19.0256C23.9562 18.9693 24.1423 18.9112 24.3244 18.8513C27.7618 17.7094 30.0012 15.8632 30.0012 13.9763C30 12.1638 27.9062 10.4131 24.6663 9.29502ZM16.6038 4.22751C18.8181 2.29563 20.8881 1.53314 21.8319 2.07813C22.8362 2.65876 23.2269 5.00001 22.5956 8.07067C22.554 8.27062 22.509 8.46997 22.4607 8.66873C21.1391 8.36821 19.7991 8.15603 18.4493 8.0338C17.6766 6.92056 16.8295 5.86085 15.9138 4.86188C16.1379 4.64438 16.3675 4.43293 16.6025 4.22751H16.6038ZM8.85813 15.5156C9.12939 16.0407 9.41292 16.5592 9.70877 17.0712C10.01 17.5937 10.3239 18.1085 10.6506 18.6157C9.72189 18.5147 8.79903 18.3659 7.88562 18.17C8.15063 17.3125 8.47688 16.4219 8.85813 15.5156ZM8.85813 12.495C8.48312 11.6082 8.16562 10.7356 7.905 9.89318C8.76125 9.70128 9.67379 9.54436 10.625 9.4256C10.3062 9.92309 9.99955 10.4279 9.70499 10.94C9.41043 11.4521 9.1275 11.9704 8.85625 12.495H8.85813ZM9.53933 14.0057C9.93436 13.1819 10.3598 12.374 10.8157 11.5819C11.271 10.7902 11.7559 10.0167 12.27 9.26123C13.1625 9.19375 14.0775 9.15817 15.0019 9.15817C15.9262 9.15817 16.8469 9.19375 17.7388 9.26192C18.2475 10.0156 18.7294 10.7865 19.1843 11.5744C19.6394 12.3623 20.0704 13.1664 20.4775 13.9869C20.0759 14.8135 19.6459 15.6248 19.1875 16.4207C18.7329 17.2123 18.2538 17.9882 17.75 18.7481C16.8594 18.8106 15.9375 18.845 15 18.845C14.0625 18.845 13.1581 18.8156 12.2838 18.7588C11.7658 18.0008 11.2771 17.224 10.8175 16.4281C10.3579 15.6323 9.93128 14.8248 9.53754 14.0057H9.53933ZM20.2969 17.0625C20.599 16.5383 20.889 16.0073 21.1669 15.4694C21.5479 16.3332 21.8841 17.216 22.1744 18.1144C21.2502 18.3225 20.3159 18.4821 19.375 18.5925C19.6925 18.0888 19.9998 17.5787 20.2969 17.0625ZM21.1543 12.4956C20.8777 11.9685 20.59 11.4478 20.2912 10.9332C19.9996 10.4256 19.6957 9.92438 19.3793 9.42938C20.3362 9.55062 21.2544 9.71191 22.115 9.90878C21.8383 10.7866 21.5177 11.65 21.1543 12.4956ZM15.0144 5.78001C15.6385 6.46194 16.2277 7.17494 16.78 7.91626C15.5988 7.86001 14.4166 7.86001 13.2337 7.91626C13.8169 7.14501 14.4138 6.42939 15.0144 5.78001ZM8.10375 2.11627C9.10753 1.53377 11.3269 2.36626 13.6662 4.44564C13.8156 4.57876 13.9663 4.71813 14.1162 4.86251C13.1959 5.86134 12.3427 6.92012 11.5625 8.03191C10.2158 8.15325 8.87838 8.36195 7.55875 8.6569C7.4825 8.35022 7.41375 8.04145 7.3525 7.73063C6.78687 4.84126 7.16125 2.66314 8.10375 2.11627ZM6.64063 17.8569C6.39063 17.7856 6.14375 17.7083 5.89999 17.625C4.4375 17.125 3.22938 16.4726 2.4 15.7619C1.6575 15.125 1.28125 14.4893 1.28125 13.9744C1.28125 12.88 2.91 11.4837 5.62625 10.5369C5.9675 10.4181 6.31166 10.3096 6.65875 10.2113C7.06215 11.5077 7.55072 12.7761 8.12125 14.0082C7.54392 15.2572 7.04931 16.5429 6.64063 17.8569ZM13.5862 23.7112C12.4219 24.7312 11.2556 25.4544 10.2275 25.8187C9.3037 26.1456 8.56813 26.155 8.12375 25.8981C7.1775 25.3513 6.78375 23.2394 7.32063 20.4069C7.38438 20.0735 7.45729 19.7402 7.53938 19.4069C8.87221 19.694 10.2231 19.8901 11.5825 19.9937C12.3703 21.1114 13.2306 22.1761 14.1575 23.1812C13.9712 23.3644 13.7806 23.5407 13.5862 23.7112ZM15.05 22.26C14.4425 21.6031 13.8363 20.8762 13.245 20.095C13.8196 20.1175 14.4046 20.1288 15 20.1288C15.6113 20.1288 16.2163 20.1156 16.8125 20.0888C16.2623 20.8419 15.674 21.5666 15.05 22.26ZM22.8325 24.0469C22.6538 25.0119 22.2944 25.6557 21.85 25.9131C20.9044 26.4619 18.8825 25.7488 16.7025 23.8681C16.4525 23.6532 16.2025 23.4225 15.9482 23.1806C16.8571 22.1715 17.697 21.1025 18.4625 19.9806C19.8295 19.8648 21.1868 19.655 22.525 19.3526C22.5863 19.6 22.6404 19.8425 22.6875 20.08C22.9882 21.5987 23.0312 22.9725 22.8325 24.0469ZM23.92 17.6319C23.7563 17.6863 23.5875 17.7387 23.4163 17.79C22.9966 16.4875 22.489 15.2149 21.8969 13.9812C22.4668 12.764 22.9546 11.51 23.3569 10.2275C23.6638 10.3169 23.9619 10.4106 24.2488 10.51C27.025 11.4675 28.7188 12.885 28.7188 13.9744C28.7188 15.1369 26.8894 16.6457 23.92 17.6319Z" fill="#215EA7"/>
</svg>
