<svg width="307" height="293" viewBox="0 0 307 293" fill="none" xmlns="http://www.w3.org/2000/svg">
<g filter="url(#filter0_d_46_12)">
<path d="M227.778 98.4782C224.991 97.5264 222.185 96.64 219.359 95.819C219.827 93.9117 220.26 91.9936 220.655 90.0646C227.031 59.0585 222.862 34.0793 208.635 25.8564C195.011 17.966 172.67 26.1888 150.132 45.8496C147.916 47.7895 145.745 49.7876 143.62 51.8438C142.203 50.4778 140.75 49.141 139.26 47.8331C115.638 26.8101 91.9613 17.9551 77.7497 26.2052C64.1267 34.112 60.0779 57.5927 65.8159 86.9803C66.3899 89.8866 67.0347 92.7801 67.7504 95.6609C64.4938 96.5842 61.2647 97.6018 58.0671 98.7125C30.4069 108.385 12.7188 123.55 12.7188 139.276C12.7188 155.526 31.7038 171.819 60.5465 181.699C62.8861 182.494 65.2474 183.234 67.6305 183.917C66.8567 187.001 66.172 190.12 65.5762 193.273C60.1269 222.154 64.3773 245.079 77.9731 252.936C92.0158 261.05 115.573 252.713 138.536 232.605C140.352 231.014 142.169 229.334 143.985 227.565C146.281 229.784 148.642 231.939 151.069 234.028C173.302 253.198 195.257 260.941 208.831 253.062C222.862 244.921 227.423 220.29 221.5 190.325C221.046 188.036 220.523 185.7 219.931 183.317C221.587 182.827 223.209 182.32 224.797 181.797C254.768 171.841 274.292 155.744 274.292 139.293C274.281 123.49 256.026 108.227 227.778 98.4782ZM157.483 54.2959C176.789 37.4524 194.837 30.8043 203.065 35.556C211.822 40.6184 215.228 61.0312 209.724 87.8032C209.361 89.5469 208.969 91.2852 208.547 93.0181C197.026 90.3974 185.342 88.5478 173.574 87.4817C166.836 77.7759 159.45 68.5366 151.467 59.8269C153.421 57.9305 155.423 56.0869 157.472 54.2959H157.483ZM89.9505 152.714C92.3155 157.292 94.7876 161.813 97.3669 166.277C99.9934 170.833 102.731 175.321 105.579 179.742C97.4817 178.862 89.4353 177.565 81.4715 175.857C83.782 168.381 86.6265 160.616 89.9505 152.714ZM89.9505 126.378C86.681 118.646 83.9128 111.039 81.6405 103.693C89.1059 102.02 97.0618 100.652 105.355 99.6171C102.576 103.955 99.9026 108.356 97.3342 112.821C94.7658 117.285 92.2991 121.804 89.9342 126.378H89.9505ZM95.8902 139.549C99.3341 132.367 103.043 125.323 107.017 118.417C110.988 111.515 115.215 104.77 119.698 98.1839C127.479 97.5954 135.457 97.2848 143.516 97.2848C151.576 97.2848 159.602 97.5954 167.378 98.1894C171.814 104.761 176.015 111.482 179.983 118.351C183.95 125.221 187.708 132.232 191.257 139.385C187.755 146.593 184.006 153.666 180.01 160.605C176.046 167.507 171.869 174.271 167.477 180.898C159.711 181.443 151.674 181.742 143.5 181.742C135.326 181.742 127.441 181.486 119.818 180.99C115.302 174.382 111.041 167.609 107.034 160.67C103.027 153.731 99.3068 146.691 95.8738 139.549H95.8902ZM189.682 166.201C192.316 161.631 194.844 157.001 197.267 152.311C200.589 159.842 203.521 167.54 206.052 175.372C197.994 177.186 189.847 178.578 181.645 179.541C184.413 175.149 187.092 170.702 189.682 166.201ZM197.158 126.384C194.746 121.788 192.238 117.247 189.633 112.761C187.09 108.336 184.44 103.966 181.683 99.6498C190.025 100.707 198.03 102.113 205.534 103.829C203.121 111.483 200.326 119.01 197.158 126.384ZM143.625 67.8318C149.067 73.7774 154.205 79.9938 159.019 86.4572C148.72 85.9668 138.414 85.9668 128.101 86.4572C133.185 79.7329 138.389 73.4935 143.625 67.8318ZM83.3733 35.8885C92.1248 30.8098 111.475 38.0681 131.871 56.1977C133.174 57.3584 134.487 58.5736 135.795 59.8323C127.77 68.5408 120.332 77.7721 113.529 87.4653C101.788 88.5232 90.1271 90.3435 78.6216 92.9145C77.9568 90.2408 77.3574 87.5489 76.8234 84.8388C71.8918 59.6471 75.1559 40.6565 83.3733 35.8885ZM70.6167 173.127C68.437 172.506 66.2846 171.832 64.1594 171.105C51.4082 166.746 40.8749 161.057 33.6437 154.861C27.1701 149.309 23.8896 143.767 23.8896 139.276C23.8896 129.735 38.0903 117.561 61.7726 109.306C64.7479 108.27 67.7486 107.324 70.7747 106.467C74.2919 117.77 78.5516 128.829 83.5259 139.571C78.4923 150.461 74.1799 161.671 70.6167 173.127ZM131.174 224.17C121.022 233.063 110.854 239.368 101.89 242.545C93.8358 245.395 87.4221 245.476 83.5477 243.237C75.2976 238.469 71.8646 220.056 76.5454 195.36C77.1013 192.454 77.737 189.547 78.4527 186.641C90.0733 189.144 101.851 190.854 113.704 191.758C120.573 201.502 128.072 210.785 136.154 219.549C134.531 221.146 132.869 222.682 131.174 224.17ZM143.936 211.517C138.639 205.79 133.354 199.452 128.199 192.641C133.208 192.837 138.309 192.935 143.5 192.935C148.829 192.935 154.104 192.821 159.303 192.586C154.505 199.153 149.376 205.472 143.936 211.517ZM211.79 227.096C210.231 235.51 207.098 241.122 203.223 243.367C194.979 248.152 177.351 241.934 158.344 225.538C156.164 223.663 153.984 221.652 151.766 219.544C159.691 210.746 167.015 201.425 173.689 191.643C185.607 190.634 197.442 188.804 209.109 186.167C209.643 188.325 210.115 190.439 210.525 192.51C213.146 205.752 213.522 217.729 211.79 227.096ZM221.271 171.165C219.844 171.639 218.372 172.097 216.879 172.544C213.221 161.188 208.795 150.093 203.632 139.336C208.601 128.724 212.854 117.79 216.361 106.608C219.037 107.388 221.636 108.205 224.138 109.071C248.343 117.42 263.11 129.779 263.11 139.276C263.11 149.412 247.16 162.566 221.271 171.165Z" fill="#215EA7" fill-opacity="0.71"/>
<path d="M143.5 162.686C148.138 162.702 152.675 161.34 156.539 158.775C160.402 156.209 163.417 152.555 165.202 148.275C166.988 143.994 167.462 139.281 166.567 134.73C165.671 130.18 163.446 125.998 160.172 122.713C156.898 119.429 152.723 117.189 148.176 116.279C143.628 115.369 138.913 115.828 134.627 117.6C130.341 119.371 126.677 122.374 124.099 126.229C121.521 130.084 120.145 134.617 120.145 139.255C120.138 142.327 120.737 145.371 121.908 148.212C123.078 151.052 124.797 153.635 126.966 155.811C129.135 157.987 131.712 159.714 134.549 160.894C137.386 162.074 140.428 162.683 143.5 162.686Z" fill="#215EA7" fill-opacity="0.71"/>
</g>
<defs>
<filter id="filter0_d_46_12" x="-8" y="-8" width="323" height="323" filterUnits="userSpaceOnUse" color-interpolation-filters="sRGB">
<feFlood flood-opacity="0" result="BackgroundImageFix"/>
<feColorMatrix in="SourceAlpha" type="matrix" values="0 0 0 0 0 0 0 0 0 0 0 0 0 0 0 0 0 0 127 0" result="hardAlpha"/>
<feOffset dx="10" dy="14"/>
<feGaussianBlur stdDeviation="11"/>
<feColorMatrix type="matrix" values="0 0 0 0 0 0 0 0 0 0 0 0 0 0 0 0 0 0 0.25 0"/>
<feBlend mode="normal" in2="BackgroundImageFix" result="effect1_dropShadow_46_12"/>
<feBlend mode="normal" in="SourceGraphic" in2="effect1_dropShadow_46_12" result="shape"/>
</filter>
</defs>
</svg>
