<svg width="384" height="352" viewBox="0 0 384 352" fill="none" xmlns="http://www.w3.org/2000/svg">
<g filter="url(#filter0_d_36_9)">
<path d="M279.267 123.656C276.051 122.557 272.812 121.534 269.55 120.587C270.091 118.386 270.59 116.172 271.047 113.946C278.405 78.1609 273.594 49.3318 257.173 39.8416C241.451 30.735 215.665 40.2252 189.654 62.9162C187.096 65.1551 184.591 67.4611 182.138 69.8341C180.503 68.2577 178.826 66.7148 177.107 65.2054C149.844 40.9422 122.518 30.7225 106.116 40.2441C90.3935 49.3695 85.7207 76.4691 92.3431 110.386C93.0056 113.74 93.7498 117.08 94.5757 120.404C90.8172 121.47 87.0904 122.644 83.4001 123.926C51.4768 135.089 31.0625 152.592 31.0625 170.742C31.0625 189.496 52.9736 208.3 86.2616 219.702C88.9617 220.621 91.687 221.474 94.4374 222.262C93.5443 225.822 92.754 229.421 92.0664 233.06C85.7773 266.392 90.6828 292.851 106.374 301.919C122.581 311.284 149.769 301.662 176.271 278.455C178.367 276.619 180.463 274.679 182.56 272.638C185.21 275.199 187.935 277.686 190.736 280.096C216.395 302.221 241.734 311.158 257.4 302.064C273.594 292.668 278.858 264.242 272.022 229.658C271.498 227.017 270.894 224.321 270.21 221.57C272.122 221.004 273.994 220.419 275.827 219.816C310.416 208.326 332.95 189.748 332.95 170.761C332.938 152.523 311.869 134.907 279.267 123.656ZM198.138 72.6642C220.42 53.2247 241.249 45.5521 250.746 51.0361C260.852 56.8787 264.783 80.4375 258.431 111.336C258.012 113.348 257.559 115.354 257.073 117.354C243.775 114.33 230.291 112.195 216.709 110.965C208.933 99.763 200.409 89.0997 191.195 79.0476C193.45 76.859 195.76 74.7312 198.125 72.6642H198.138ZM120.197 186.251C122.927 191.534 125.78 196.752 128.757 201.904C131.788 207.162 134.947 212.342 138.234 217.445C128.889 216.429 119.603 214.932 110.412 212.961C113.078 204.332 116.361 195.37 120.197 186.251ZM120.197 155.856C116.424 146.932 113.229 138.152 110.607 129.675C119.223 127.744 128.405 126.165 137.977 124.97C134.769 129.976 131.683 135.056 128.719 140.209C125.755 145.362 122.908 150.577 120.179 155.856H120.197ZM127.052 171.057C131.027 162.768 135.308 154.638 139.895 146.668C144.477 138.701 149.356 130.918 154.529 123.316C163.51 122.637 172.717 122.279 182.019 122.279C191.32 122.279 200.584 122.637 209.559 123.323C214.678 130.907 219.527 138.664 224.105 146.592C228.684 154.521 233.021 162.612 237.117 170.868C233.076 179.186 228.749 187.349 224.137 195.358C219.562 203.324 214.741 211.131 209.672 218.778C200.71 219.407 191.434 219.753 182 219.753C172.566 219.753 163.466 219.457 154.668 218.885C149.456 211.258 144.538 203.441 139.914 195.433C135.289 187.425 130.996 179.299 127.034 171.057H127.052ZM235.3 201.816C238.34 196.542 241.258 191.198 244.054 185.786C247.888 194.478 251.271 203.361 254.192 212.401C244.893 214.495 235.491 216.101 226.023 217.212C229.218 212.143 232.31 207.011 235.3 201.816ZM243.928 155.862C241.144 150.558 238.249 145.318 235.243 140.14C232.308 135.033 229.25 129.989 226.067 125.008C235.696 126.228 244.935 127.851 253.595 129.832C250.81 138.665 247.584 147.353 243.928 155.862ZM182.145 88.2862C188.425 95.1482 194.354 102.323 199.911 109.782C188.025 109.216 176.13 109.216 164.227 109.782C170.095 102.022 176.101 94.8206 182.145 88.2862ZM112.606 51.4198C122.707 45.5584 145.039 53.9354 168.579 74.8591C170.082 76.1987 171.598 77.6011 173.107 79.0539C163.846 89.1046 155.261 99.7586 147.41 110.946C133.859 112.167 120.401 114.267 107.122 117.235C106.355 114.149 105.663 111.042 105.047 107.914C99.3554 78.8401 103.123 56.9227 112.606 51.4198ZM97.8838 209.81C95.3682 209.093 92.884 208.315 90.4312 207.477C75.7148 202.445 63.5581 195.88 55.2125 188.729C47.7411 182.32 43.9551 175.924 43.9551 170.742C43.9551 159.73 60.3444 145.68 87.6766 136.152C91.1105 134.957 94.5736 133.865 98.0662 132.876C102.125 145.921 107.042 158.684 112.783 171.082C106.973 183.651 101.996 196.588 97.8838 209.81ZM167.774 268.719C156.058 278.983 144.322 286.26 133.977 289.926C124.681 293.215 117.279 293.31 112.808 290.725C103.286 285.222 99.324 263.971 104.726 235.469C105.368 232.115 106.102 228.761 106.927 225.407C120.339 228.296 133.932 230.269 147.611 231.312C155.539 242.558 164.195 253.272 173.522 263.386C171.648 265.229 169.73 267.003 167.774 268.719ZM182.503 254.116C176.39 247.506 170.29 240.192 164.34 232.331C170.122 232.557 176.009 232.671 182 232.671C188.151 232.671 194.239 232.538 200.238 232.268C194.702 239.847 188.782 247.139 182.503 254.116ZM260.815 272.097C259.016 281.807 255.4 288.285 250.928 290.876C241.413 296.398 221.068 289.222 199.131 270.298C196.616 268.135 194.1 265.814 191.541 263.38C200.687 253.226 209.139 242.469 216.841 231.18C230.597 230.015 244.255 227.903 257.72 224.86C258.337 227.35 258.882 229.79 259.355 232.18C262.381 247.462 262.814 261.286 260.815 272.097ZM271.757 207.546C270.11 208.093 268.412 208.621 266.689 209.137C262.466 196.03 257.358 183.225 251.4 170.811C257.135 158.563 262.043 145.944 266.091 133.039C269.179 133.939 272.179 134.882 275.066 135.882C303.002 145.517 320.045 159.78 320.045 170.742C320.045 182.44 301.637 197.622 271.757 207.546Z" fill="#215EA7" fill-opacity="0.71"/>
<path d="M182 197.76C187.352 197.777 192.589 196.206 197.048 193.245C201.507 190.284 204.987 186.067 207.047 181.127C209.107 176.187 209.656 170.747 208.622 165.495C207.589 160.244 205.02 155.417 201.241 151.626C197.463 147.835 192.645 145.251 187.396 144.2C182.148 143.15 176.706 143.68 171.76 145.724C166.813 147.768 162.584 151.235 159.609 155.684C156.633 160.133 155.045 165.365 155.045 170.717C155.038 174.263 155.729 177.776 157.08 181.054C158.431 184.333 160.415 187.313 162.918 189.825C165.421 192.336 168.395 194.33 171.669 195.691C174.944 197.053 178.454 197.756 182 197.76Z" fill="#215EA7" fill-opacity="0.71"/>
</g>
<defs>
<filter id="filter0_d_36_9" x="-10" y="-26" width="404" height="404" filterUnits="userSpaceOnUse" color-interpolation-filters="sRGB">
<feFlood flood-opacity="0" result="BackgroundImageFix"/>
<feColorMatrix in="SourceAlpha" type="matrix" values="0 0 0 0 0 0 0 0 0 0 0 0 0 0 0 0 0 0 127 0" result="hardAlpha"/>
<feOffset dx="10" dy="5"/>
<feGaussianBlur stdDeviation="20.5"/>
<feColorMatrix type="matrix" values="0 0 0 0 0 0 0 0 0 0 0 0 0 0 0 0 0 0 0.25 0"/>
<feBlend mode="normal" in2="BackgroundImageFix" result="effect1_dropShadow_36_9"/>
<feBlend mode="normal" in="SourceGraphic" in2="effect1_dropShadow_36_9" result="shape"/>
</filter>
</defs>
</svg>
