<svg width="10" height="10" viewBox="0 0 10 10" fill="none" xmlns="http://www.w3.org/2000/svg">
<path d="M8.86817 3.44825L6.38868 3.08789L5.28028 0.840824C5.25 0.779301 5.2002 0.729496 5.13867 0.699222C4.98438 0.62305 4.79688 0.686527 4.71973 0.840824L3.61133 3.08789L1.13184 3.44825C1.06348 3.45801 1.00098 3.49024 0.953128 3.53907C0.895278 3.59853 0.8634 3.67852 0.864499 3.76147C0.865598 3.84442 0.899583 3.92354 0.958987 3.98145L2.75293 5.73047L2.3291 8.2002C2.31917 8.25765 2.32552 8.31674 2.34746 8.37076C2.36939 8.42478 2.40602 8.47158 2.45319 8.50584C2.50037 8.5401 2.5562 8.56046 2.61436 8.56461C2.67252 8.56876 2.73067 8.55652 2.78223 8.5293L5 7.36329L7.21778 8.5293C7.27832 8.56153 7.34864 8.57227 7.41602 8.56055C7.58594 8.53125 7.7002 8.37012 7.6709 8.2002L7.24707 5.73047L9.04102 3.98145C9.08985 3.9336 9.12207 3.8711 9.13184 3.80274C9.15821 3.63184 9.03907 3.47364 8.86817 3.44825ZM6.49219 5.48438L6.84473 7.53809L5 6.56934L3.15528 7.53907L3.50782 5.48536L2.01563 4.03028L4.07813 3.73047L5 1.86231L5.92188 3.73047L7.98438 4.03028L6.49219 5.48438Z" fill="#111111" fill-opacity="0.4"/>
</svg>
