<svg width="64" height="64" viewBox="0 0 64 64" fill="none" xmlns="http://www.w3.org/2000/svg">
<rect width="64" height="64" rx="10" fill="url(#paint0_linear_38_32)"/>
<path d="M41.1704 27.6206L34.9717 26.7197L32.2007 21.1021C32.125 20.9483 32.0005 20.8237 31.8467 20.7481C31.4609 20.5576 30.9922 20.7163 30.7993 21.1021L28.0283 26.7197L21.8296 27.6206C21.6587 27.645 21.5024 27.7256 21.3828 27.8477C21.2382 27.9963 21.1585 28.1963 21.1612 28.4037C21.164 28.6111 21.2489 28.8089 21.3975 28.9536L25.8823 33.3262L24.8227 39.5005C24.7979 39.6441 24.8138 39.7919 24.8686 39.9269C24.9235 40.062 25.015 40.1789 25.133 40.2646C25.2509 40.3503 25.3905 40.4012 25.5359 40.4115C25.6813 40.4219 25.8267 40.3913 25.9556 40.3233L31.5 37.4082L37.0444 40.3233C37.1958 40.4038 37.3716 40.4307 37.54 40.4014C37.9648 40.3281 38.2505 39.9253 38.1772 39.5005L37.1177 33.3262L41.6025 28.9536C41.7246 28.834 41.8052 28.6777 41.8296 28.5068C41.8955 28.0796 41.5976 27.6841 41.1704 27.6206ZM35.2305 32.711L36.1118 37.8452L31.5 35.4234L26.8882 37.8477L27.7695 32.7134L24.0391 29.0757L29.1953 28.3262L31.5 23.6558L33.8047 28.3262L38.9609 29.0757L35.2305 32.711Z" fill="#61DAFB"/>
<defs>
<linearGradient id="paint0_linear_38_32" x1="32" y1="0" x2="32" y2="64" gradientUnits="userSpaceOnUse">
<stop stop-color="#61DAFB" stop-opacity="0.25"/>
<stop offset="1" stop-color="#61DAFB" stop-opacity="0"/>
</linearGradient>
</defs>
</svg>
